<?xml version="1.0" encoding="utf-8"?>
<!-- Generator: Adobe Illustrator 19.0.0, SVG Export Plug-In . SVG Version: 6.00 Build 0)  -->
<svg version="1.1" id="Calque_1" xmlns="http://www.w3.org/2000/svg" xmlns:xlink="http://www.w3.org/1999/xlink" x="0px" y="0px"
	 viewBox="0 0 304 304" style="enable-background:new 0 0 304 304;" xml:space="preserve">
<path id="XMLID_6_" d="M163.3,177.7c-0.1-0.2,13.8,12.2,35,13.2c40.9,1.9,65.3-40.6,77.5-33.2c9.5,5.7,8.2,39.6-9.4,51.6
	C242.7,225.4,192.1,213.1,163.3,177.7z"/>
<path id="XMLID_5_" d="M257.1,76.6c3,21.1-21.1,44.9-31.7,41.7c-13.7-4,1.2-50.7-27.8-79.6c-15-15-33.5-17-33.4-17
	C209.7,19.1,253,48.2,257.1,76.6z"/>
<path id="XMLID_4_" d="M122,29.1c-19.2,10.6-27.4,28.2-31.2,36.4c-5.1,11.4-6.9,20.1-8.6,37.7c-1.3,14.3-2,29.4-2,45.4
	c0,14.9,0.6,29.7,1.7,44.6c1.1,14.9,4.2,28.4,9.1,40.6c5.4,13.4,13.6,22.2,18.3,26.7c0.1,0.1,1.7,1.6,3.4,3.1
	c5.4,4.5,17.1,12.9,39.3,18.6c-2,0.1-4.7,0.2-7.9,0.2c0,0-11,0-20.9-1.4c-8.2-1.2-44.8-11-72.3-45.3c-25.7-32.1-28.4-66.9-28.8-79.8
	c-0.3-10.7-0.7-50.5,28.3-86.4c34.6-42.8,84.5-47.1,93.1-47.7C138.4,22.6,130.5,24.4,122,29.1z"/>
</svg>
